<svg width="28" height="44" viewBox="0 0 28 44" fill="none" xmlns="http://www.w3.org/2000/svg">
<path d="M12.6637 22.0008L27.3227 7.34177C27.4974 7.1672 27.636 6.9599 27.7305 6.73175C27.8251 6.5036 27.8737 6.25907 27.8737 6.0121C27.8737 5.76514 27.8251 5.52061 27.7305 5.29246C27.636 5.06431 27.4974 4.85702 27.3227 4.68245L23.1913 0.55099C23.0167 0.37631 22.8094 0.23774 22.5813 0.143198C22.3531 0.0486555 22.1086 0 21.8616 0C21.6146 0 21.3701 0.0486555 21.142 0.143198C20.9138 0.23774 20.7065 0.37631 20.5319 0.55099L0.642678 20.4419C0.231096 20.855 0 21.4144 0 21.9975C0 22.5807 0.231096 23.1401 0.642678 23.5532L20.5319 43.4425C20.7065 43.6171 20.9138 43.7557 21.142 43.8502C21.3701 43.9448 21.6146 43.9934 21.8616 43.9934C22.1086 43.9934 22.3531 43.9448 22.5813 43.8502C22.8094 43.7557 23.0167 43.6171 23.1913 43.4425L27.3227 39.311C27.4974 39.1364 27.636 38.9291 27.7305 38.701C27.8251 38.4728 27.8737 38.2283 27.8737 37.9813C27.8737 37.7344 27.8251 37.4898 27.7305 37.2617C27.636 37.0335 27.4974 36.8262 27.3227 36.6517L12.6637 22.0008Z" fill="url(#paint0_linear_39_101)"/>
<defs>
<linearGradient id="paint0_linear_39_101" x1="-3.14973" y1="31.2793" x2="35.5159" y2="23.3816" gradientUnits="userSpaceOnUse">
<stop stop-color="#0CB351"/>
<stop offset="1" stop-color="#00FF5F"/>
</linearGradient>
</defs>
</svg>
