<svg width="29" height="37" viewBox="0 0 29 37" fill="none" xmlns="http://www.w3.org/2000/svg">
<path d="M16.3198 4.64354L14.9967 0.713501L27.7283 13.4452C28.1399 13.8583 28.371 14.4177 28.371 15.0008C28.371 15.584 28.1399 16.1434 27.7283 16.5565L7.83416 36.449C7.65958 36.6237 7.45231 36.7623 7.22416 36.8568C6.99601 36.9514 6.75146 37 6.5045 37C6.25754 37 6.01301 36.9514 5.78486 36.8568C5.55671 36.7623 5.34942 36.6237 5.17484 36.449L1.0434 32.3176C0.868716 32.143 0.730133 31.9357 0.635591 31.7075C0.541049 31.4794 0.492393 31.2349 0.492393 30.9879C0.492393 30.7409 0.541049 30.4964 0.635591 30.2682C0.730133 30.0401 0.868716 29.8328 1.0434 29.6583L13.4721 17.0002C14.7648 15.684 15.7399 14.0901 16.323 12.3399C17.1583 9.84224 17.1572 7.14046 16.3198 4.64354Z" fill="#00FF5F"/>
</svg>
