<svg width="28" height="37" viewBox="0 0 28 37" fill="none" xmlns="http://www.w3.org/2000/svg">
<path d="M12.0529 4.64354L13.376 0.713501L0.644265 13.4452C0.232683 13.8583 0.00158691 14.4177 0.00158691 15.0008C0.00158691 15.584 0.232683 16.1434 0.644265 16.5565L20.5336 36.4457C20.7081 36.6204 20.9154 36.759 21.1436 36.8535C21.3717 36.9481 21.6162 36.9967 21.8632 36.9967C22.1102 36.9967 22.3547 36.9481 22.5829 36.8535C22.811 36.759 23.0183 36.6204 23.1929 36.4457L27.3243 32.3143C27.499 32.1397 27.6376 31.9324 27.7321 31.7043C27.8267 31.4761 27.8753 31.2316 27.8753 30.9846C27.8753 30.7377 27.8267 30.4931 27.7321 30.265C27.6376 30.0368 27.499 29.8295 27.3243 29.655L14.8956 16.997C13.6029 15.6808 12.6278 14.0868 12.0447 12.3366C11.2117 9.83942 11.2146 7.13893 12.0529 4.64354Z" fill="#00FF5F"/>
</svg>
